<svg width="115" height="115" viewBox="0 0 115 115" fill="none" xmlns="http://www.w3.org/2000/svg">
<circle cx="57.5" cy="57.5" r="57.5" fill="#4730D1"/>
<path d="M72.2731 63.0368H50.5015V85.5726H37V29H74.4657V39.5297H50.5015V52.546H72.2731V63.0368Z" fill="white"/>
<path d="M71.8454 72.8671C73.8969 72.8671 75.6022 73.4888 76.9613 74.7321C78.3204 75.9496 79 77.5167 79 79.4335C79 81.3504 78.3204 82.9305 76.9613 84.1738C75.6022 85.3913 73.8969 86 71.8454 86C69.7682 86 68.0501 85.3783 66.691 84.135C65.3575 82.8916 64.6907 81.3245 64.6907 79.4335C64.6907 77.5426 65.3575 75.9755 66.691 74.7321C68.0501 73.4888 69.7682 72.8671 71.8454 72.8671Z" fill="white"/>
</svg>
